<?xml version="1.0" encoding="UTF-8"?>
<svg id="Capa_1" xmlns="http://www.w3.org/2000/svg" version="1.1" viewBox="0 0 283.5 283.5">
  <!-- Generator: Adobe Illustrator 29.3.1, SVG Export Plug-In . SVG Version: 2.1.0 Build 151)  -->
  <defs>
    <style>
      .st0 {
        fill: #fff;
      }
    </style>
  </defs>
  <path class="st0" d="M254.3,273.8c-7.9,0-15.1-4.7-18.2-12.4l-36.7-90.9-29.8,29.8c-7.4,7.4-17.2,11.4-27.6,11.4s-20.2-4.1-27.6-11.4l-29.8-29.8-36.7,90.9c-3.6,8.9-12.7,13.8-22.1,12-9.4-1.8-16-9.8-16-19.4v-93.5c0-16.1,9.2-29.9,24.1-36.1,14.9-6.2,31.2-2.9,42.6,8.5l.6.6L123.6,18.3c3-7.5,10.2-12.4,18.3-12.4s15.3,4.9,18.3,12.4l46.6,115.3.6-.6c11.4-11.4,27.7-14.6,42.6-8.5,14.9,6.2,24.1,20,24.1,36.1v93.5c0,9.6-6.6,17.6-16,19.4-1.3.3-2.6.4-3.9.4ZM215.4,154.6l38,94v-88c0-7.6-4.2-13.9-11.2-16.8-7-2.9-14.5-1.4-19.9,3.9l-6.9,6.9ZM49,142.3c-2.4,0-4.8.5-7.2,1.5-7,2.9-11.2,9.2-11.2,16.8v88l38-94-6.9-6.9c-3.6-3.6-8-5.4-12.7-5.4ZM93.1,149.6l36,36c3.4,3.4,8,5.3,12.9,5.3s9.4-1.9,12.9-5.3l36-36-48.9-121-48.9,121Z"/>
</svg>